<?xml version="1.0" standalone="no"?><!DOCTYPE svg PUBLIC "-//W3C//DTD SVG 1.1//EN" "http://www.w3.org/Graphics/SVG/1.1/DTD/svg11.dtd"><svg t="1610006787204" class="icon" viewBox="0 0 1024 1024" version="1.1" xmlns="http://www.w3.org/2000/svg" p-id="3425" width="16" height="16" xmlns:xlink="http://www.w3.org/1999/xlink"><defs><style type="text/css">@font-face { font-family: element-icons; src: url("chrome-extension://moombeodfomdpjnpocobemoiaemednkg/fonts/element-icons.woff") format("woff"), url("chrome-extension://moombeodfomdpjnpocobemoiaemednkg/fonts/element-icons.ttf ") format("truetype"); }
</style></defs><path d="M512 64C264.6 64 64 264.6 64 512s200.6 448 448 448 448-200.6 448-448S759.4 64 512 64z m193.1 587.3c-11.5-2.8-41.1-54.9-41.1-54.9s2.4 64.8-49.8 105.3c29 7.7 37.3 18.9 37.3 24.8 0 9.8-35.3 9.2-78.5 9.2-14.3 0-28-0.3-39.9-0.9-11.3 1.3-18.4 0.9-18.4 0.9h-5.9s-10.3 0.5-25.7-2.1c-14.3 1.6-33.4 2.1-53.8 2.1-42 0-76.4 0.6-76.4-9.3 0-8.4 11.1-21.7 53-28.7-47.8-40.6-45.6-101.9-45.6-101.9s-29.6 52.1-41.1 54.9c-5.9 1.4-8.4-21.9-3.5-51.7 4.9-29.8 12.9-51.1 12.9-51.1s11.2-35.8 17.6-53.6c5.5-15.2 18-45.4 18-45.4S352.7 308 443 255c50.9-25.3 94.6-18.2 122.5-6.7 5.3 1.9 10.5 4.5 16.1 7.2 90.3 52.9 78.8 193.9 78.8 193.9s12.5 30.2 18 45.4c6.4 17.8 17.6 53.6 17.6 53.6s8 21.3 12.9 51.1c4.6 29.9 2.1 53.3-3.8 51.8z" fill="#000000" p-id="3426"></path></svg>